<svg width="35" height="35" viewBox="0 0 35 35" fill="none" xmlns="http://www.w3.org/2000/svg">
<path d="M8.75013 24.7917H26.2501M24.7918 30.6251C25.1786 30.6251 25.5495 30.4714 25.823 30.1979C26.0965 29.9244 26.2501 29.5535 26.2501 29.1667V21.3646C26.2501 20.6982 26.711 20.1338 27.3103 19.8465C28.5513 19.2545 29.5433 18.2432 30.1113 16.9909C30.6792 15.7387 30.7865 14.3261 30.4143 13.0025C30.0421 11.6789 29.2143 10.5292 28.077 9.75652C26.9396 8.98381 25.5659 8.63768 24.1983 8.77922C23.635 7.46994 22.7004 6.35445 21.5099 5.57065C20.3195 4.78686 18.9254 4.36914 17.5001 4.36914C16.0748 4.36914 14.6808 4.78686 13.4903 5.57065C12.2999 6.35445 11.3653 7.46994 10.802 8.77922C9.43494 8.63867 8.06214 8.98529 6.92566 9.75797C5.78917 10.5306 4.96198 11.6798 4.58992 13.0027C4.21786 14.3257 4.32483 15.7375 4.89197 16.9893C5.4591 18.2411 6.44999 19.2524 7.68992 19.8451C8.28929 20.1338 8.75013 20.6982 8.75013 21.3632V29.1667C8.75013 29.5535 8.90377 29.9244 9.17726 30.1979C9.45075 30.4714 9.82169 30.6251 10.2085 30.6251H24.7918Z" stroke="white" stroke-width="2" stroke-linecap="round" stroke-linejoin="round"/>
</svg>
